REM DIRINDEX 1\2\6,1\2\7,1\2\8,1\2\9,1\3\10,1\3\11,1\4\12,1\4\13,1\4\14,1\5\15,1\5\16,1\5\17
REM DIRNAME folder01,folder02,folder03,folder04,folder05,folder06,folder07,folder08,folder09,folder10,folder11,folder12,folder13,folder14,folder15,folder16,folder17
TITLE ""
FILE "1400_3_sec01_0017_0033.mp3" MP3
  TRACK 01 AUDIO
    TITLE "0:"
    INDEX 01 00:00:00
  TRACK 02 AUDIO
    TITLE "17:cjc029_4460"
    INDEX 01 00:00:15
  TRACK 03 AUDIO
    TITLE "0:"
    INDEX 01 00:01:46
  TRACK 04 AUDIO
    TITLE "16:cjc029_4461"
    INDEX 01 00:01:52
  TRACK 05 AUDIO
    TITLE "0:"
    INDEX 01 00:02:53
  TRACK 06 AUDIO
    TITLE "17:cjc029_4462"
    INDEX 01 00:03:37
  TRACK 07 AUDIO
    TITLE "0:"
    INDEX 01 00:04:40
  TRACK 08 AUDIO
    TITLE "16:cjc029_4463"
    INDEX 01 00:04:44
  TRACK 09 AUDIO
    TITLE "0:"
    INDEX 01 00:05:50
  TRACK 10 AUDIO
    TITLE "17:cjc029_4464"
    INDEX 01 00:06:33
  TRACK 11 AUDIO
    TITLE "0:"
    INDEX 01 00:07:74
  TRACK 12 AUDIO
    TITLE "16:cjc029_4465"
    INDEX 01 00:08:03
  TRACK 13 AUDIO
    TITLE "0:"
    INDEX 01 00:09:20
  TRACK 14 AUDIO
    TITLE "17:cjc029_4466"
    INDEX 01 00:10:02
  TRACK 15 AUDIO
    TITLE "0:"
    INDEX 01 00:11:31
  TRACK 16 AUDIO
    TITLE "16:cjc029_4467"
    INDEX 01 00:11:39
  TRACK 17 AUDIO
    TITLE "0:"
    INDEX 01 00:12:38
  TRACK 18 AUDIO
    TITLE "17:cjc029_4468"
    INDEX 01 00:13:22
  TRACK 19 AUDIO
    TITLE "0:"
    INDEX 01 00:15:13
  TRACK 20 AUDIO
    TITLE "16:cjc029_4469"
    INDEX 01 00:15:19
  TRACK 21 AUDIO
    TITLE "0:"
    INDEX 01 00:16:26
  TRACK 22 AUDIO
    TITLE "17:cjc029_4470"
    INDEX 01 00:17:12
  TRACK 23 AUDIO
    TITLE "0:"
    INDEX 01 00:20:32
  TRACK 24 AUDIO
    TITLE "16:cjc029_4471"
    INDEX 01 00:20:39
  TRACK 25 AUDIO
    TITLE "0:"
    INDEX 01 00:21:41
  TRACK 26 AUDIO
    TITLE "17:cjc029_4472"
    INDEX 01 00:22:25
  TRACK 27 AUDIO
    TITLE "0:"
    INDEX 01 00:23:34
  TRACK 28 AUDIO
    TITLE "16:cjc029_4473"
    INDEX 01 00:23:40
  TRACK 29 AUDIO
    TITLE "0:"
    INDEX 01 00:24:35
  TRACK 30 AUDIO
    TITLE "17:cjc029_4474"
    INDEX 01 00:25:19
  TRACK 31 AUDIO
    TITLE "0:"
    INDEX 01 00:27:28
  TRACK 32 AUDIO
    TITLE "16:cjc029_4475"
    INDEX 01 00:27:34
  TRACK 33 AUDIO
    TITLE "0:"
    INDEX 01 00:28:35
  TRACK 34 AUDIO
    TITLE "17:cjc029_4476"
    INDEX 01 00:29:19
  TRACK 35 AUDIO
    TITLE "0:"
    INDEX 01 00:30:40
  TRACK 36 AUDIO
    TITLE "16:cjc029_4477"
    INDEX 01 00:30:46
  TRACK 37 AUDIO
    TITLE "0:"
    INDEX 01 00:31:53
  TRACK 38 AUDIO
    TITLE "17:cjc029_4478"
    INDEX 01 00:32:39
  TRACK 39 AUDIO
    TITLE "0:"
    INDEX 01 00:33:64
  TRACK 40 AUDIO
    TITLE "16:cjc029_4479"
    INDEX 01 00:33:71
  TRACK 41 AUDIO
    TITLE "0:"
    INDEX 01 00:35:02
  TRACK 42 AUDIO
    TITLE "17:cjc029_4480"
    INDEX 01 00:35:59
  TRACK 43 AUDIO
    TITLE "0:"
    INDEX 01 00:36:74
  TRACK 44 AUDIO
    TITLE "16:cjc029_4481"
    INDEX 01 00:37:05
  TRACK 45 AUDIO
    TITLE "0:"
    INDEX 01 00:38:10
  TRACK 46 AUDIO
    TITLE "17:cjc029_4482"
    INDEX 01 00:38:69
  TRACK 47 AUDIO
    TITLE "0:"
    INDEX 01 00:40:73
  TRACK 48 AUDIO
    TITLE "16:cjc029_4483"
    INDEX 01 00:41:04
  TRACK 49 AUDIO
    TITLE "0:"
    INDEX 01 00:42:10
  TRACK 50 AUDIO
    TITLE "17:cjc029_4484"
    INDEX 01 00:42:70
  TRACK 51 AUDIO
    TITLE "0:"
    INDEX 01 00:46:19
  TRACK 52 AUDIO
    TITLE "16:cjc029_4485"
    INDEX 01 00:46:27
  TRACK 53 AUDIO
    TITLE "0:"
    INDEX 01 00:47:28
  TRACK 54 AUDIO
    TITLE "17:cjc029_4486"
    INDEX 01 00:48:12
  TRACK 55 AUDIO
    TITLE "0:"
    INDEX 01 00:50:56
  TRACK 56 AUDIO
    TITLE "16:cjc029_4487"
    INDEX 01 00:50:64
  TRACK 57 AUDIO
    TITLE "0:"
    INDEX 01 00:51:63
  TRACK 58 AUDIO
    TITLE "17:cjc029_4488"
    INDEX 01 00:52:47
  TRACK 59 AUDIO
    TITLE "0:"
    INDEX 01 00:56:04
  TRACK 60 AUDIO
    TITLE "16:cjc029_4489"
    INDEX 01 00:56:12
  TRACK 61 AUDIO
    TITLE "0:"
    INDEX 01 00:57:25
  TRACK 62 AUDIO
    TITLE "17:cjc029_4490"
    INDEX 01 00:58:11
  TRACK 63 AUDIO
    TITLE "0:"
    INDEX 01 01:00:04
  TRACK 64 AUDIO
    TITLE "16:cjc029_4491"
    INDEX 01 01:00:12
  TRACK 65 AUDIO
    TITLE "0:"
    INDEX 01 01:01:23
  TRACK 66 AUDIO
    TITLE "17:cjc029_4492"
    INDEX 01 01:02:06
  TRACK 67 AUDIO
    TITLE "0:"
    INDEX 01 01:03:31
  TRACK 68 AUDIO
    TITLE "16:cjc029_4493"
    INDEX 01 01:03:37
  TRACK 69 AUDIO
    TITLE "0:"
    INDEX 01 01:04:47
